<mxfile host="app.diagrams.net" modified="2021-05-09T14:04:29.686Z" agent="5.0 (Windows NT 10.0; Win64; x64) AppleWebKit/537.36 (KHTML, like Gecko) Chrome/90.0.4430.93 Safari/537.36" etag="L1OW9pEkLu2HA9ZVKZ8K" version="14.3.0" type="github" pages="2">
  <diagram id="sxMJ_nap7cBqD4o1403F" name="Identity_Mgmt">
    <mxGraphModel dx="1043" dy="507" grid="1" gridSize="10" guides="1" tooltips="1" connect="1" arrows="1" fold="1" page="1" pageScale="1" pageWidth="1169" pageHeight="827" math="0" shadow="0">
      <root>
        <mxCell id="0" />
        <mxCell id="1" parent="0" />
        <mxCell id="un5sAC3a2ipCCexAvyBw-23" value="" style="rounded=0;whiteSpace=wrap;html=1;fontSize=10;fillColor=#dae8fc;strokeColor=#6c8ebf;" vertex="1" parent="1">
          <mxGeometry x="10" y="477" width="150" height="150" as="geometry" />
        </mxCell>
        <mxCell id="IpSXLrwP37XdnlG8DyKs-26" value="" style="rounded=0;whiteSpace=wrap;html=1;fontSize=8;fillColor=#f5f5f5;strokeColor=#666666;fontColor=#333333;" parent="1" vertex="1">
          <mxGeometry x="140" y="314" width="450" height="150" as="geometry" />
        </mxCell>
        <mxCell id="IpSXLrwP37XdnlG8DyKs-18" value="" style="rounded=0;whiteSpace=wrap;html=1;fontSize=10;fillColor=#dae8fc;strokeColor=#6c8ebf;" parent="1" vertex="1">
          <mxGeometry x="687.14" y="194" width="100" height="270" as="geometry" />
        </mxCell>
        <mxCell id="25LvW-JFgtDjOyR0rEGd-62" value="" style="whiteSpace=wrap;html=1;aspect=fixed;" parent="1" vertex="1">
          <mxGeometry x="163.21" y="324" width="116.87" height="116.87" as="geometry" />
        </mxCell>
        <mxCell id="25LvW-JFgtDjOyR0rEGd-10" value="" style="rounded=0;whiteSpace=wrap;html=1;fillColor=#f5f5f5;strokeColor=#666666;fontColor=#333333;" parent="1" vertex="1">
          <mxGeometry x="180" y="219" width="360" height="60" as="geometry" />
        </mxCell>
        <mxCell id="25LvW-JFgtDjOyR0rEGd-2" value="" style="aspect=fixed;html=1;points=[];align=center;image;fontSize=12;image=img/lib/azure2/general/Management_Groups.svg;" parent="1" vertex="1">
          <mxGeometry x="349.37" y="124" width="41.25" height="40" as="geometry" />
        </mxCell>
        <mxCell id="25LvW-JFgtDjOyR0rEGd-26" style="edgeStyle=orthogonalEdgeStyle;rounded=0;orthogonalLoop=1;jettySize=auto;html=1;" parent="1" source="25LvW-JFgtDjOyR0rEGd-3" edge="1">
          <mxGeometry relative="1" as="geometry">
            <mxPoint x="270" y="214" as="targetPoint" />
          </mxGeometry>
        </mxCell>
        <mxCell id="25LvW-JFgtDjOyR0rEGd-27" style="edgeStyle=orthogonalEdgeStyle;rounded=0;orthogonalLoop=1;jettySize=auto;html=1;" parent="1" source="25LvW-JFgtDjOyR0rEGd-3" edge="1">
          <mxGeometry relative="1" as="geometry">
            <mxPoint x="369.99" y="214" as="targetPoint" />
          </mxGeometry>
        </mxCell>
        <mxCell id="25LvW-JFgtDjOyR0rEGd-122" style="edgeStyle=orthogonalEdgeStyle;rounded=0;orthogonalLoop=1;jettySize=auto;html=1;fontSize=7;" parent="1" source="25LvW-JFgtDjOyR0rEGd-3" edge="1">
          <mxGeometry relative="1" as="geometry">
            <mxPoint x="480" y="214" as="targetPoint" />
          </mxGeometry>
        </mxCell>
        <mxCell id="25LvW-JFgtDjOyR0rEGd-3" value="Management Group" style="text;html=1;align=center;verticalAlign=middle;resizable=0;points=[];autosize=1;" parent="1" vertex="1">
          <mxGeometry x="309.99" y="164" width="120" height="20" as="geometry" />
        </mxCell>
        <mxCell id="25LvW-JFgtDjOyR0rEGd-52" style="edgeStyle=orthogonalEdgeStyle;rounded=0;orthogonalLoop=1;jettySize=auto;html=1;entryX=0.5;entryY=0;entryDx=0;entryDy=0;" parent="1" source="25LvW-JFgtDjOyR0rEGd-6" target="25LvW-JFgtDjOyR0rEGd-62" edge="1">
          <mxGeometry relative="1" as="geometry">
            <mxPoint x="130" y="314" as="targetPoint" />
          </mxGeometry>
        </mxCell>
        <mxCell id="25LvW-JFgtDjOyR0rEGd-6" value="Corp-prod" style="text;html=1;align=center;verticalAlign=middle;resizable=0;points=[];autosize=1;" parent="1" vertex="1">
          <mxGeometry x="235.78" y="259" width="70" height="20" as="geometry" />
        </mxCell>
        <mxCell id="25LvW-JFgtDjOyR0rEGd-53" style="edgeStyle=orthogonalEdgeStyle;rounded=0;orthogonalLoop=1;jettySize=auto;html=1;" parent="1" source="25LvW-JFgtDjOyR0rEGd-7" edge="1">
          <mxGeometry relative="1" as="geometry">
            <mxPoint x="365" y="324" as="targetPoint" />
          </mxGeometry>
        </mxCell>
        <mxCell id="25LvW-JFgtDjOyR0rEGd-7" value="Corp-Dev" style="text;html=1;align=center;verticalAlign=middle;resizable=0;points=[];autosize=1;" parent="1" vertex="1">
          <mxGeometry x="330" y="259" width="70" height="20" as="geometry" />
        </mxCell>
        <mxCell id="25LvW-JFgtDjOyR0rEGd-54" style="edgeStyle=orthogonalEdgeStyle;rounded=0;orthogonalLoop=1;jettySize=auto;html=1;entryX=0.5;entryY=0;entryDx=0;entryDy=0;" parent="1" source="25LvW-JFgtDjOyR0rEGd-8" target="25LvW-JFgtDjOyR0rEGd-107" edge="1">
          <mxGeometry relative="1" as="geometry">
            <mxPoint x="610" y="314" as="targetPoint" />
          </mxGeometry>
        </mxCell>
        <mxCell id="25LvW-JFgtDjOyR0rEGd-8" value="Corp-Stage" style="text;html=1;align=center;verticalAlign=middle;resizable=0;points=[];autosize=1;" parent="1" vertex="1">
          <mxGeometry x="425.78" y="259" width="80" height="20" as="geometry" />
        </mxCell>
        <mxCell id="25LvW-JFgtDjOyR0rEGd-22" value="Apply Policies&lt;br&gt;Owner Access to IAM team" style="text;html=1;align=center;verticalAlign=middle;resizable=0;points=[];autosize=1;" parent="1" vertex="1">
          <mxGeometry x="400" y="129" width="160" height="30" as="geometry" />
        </mxCell>
        <mxCell id="25LvW-JFgtDjOyR0rEGd-29" value="" style="aspect=fixed;html=1;points=[];align=center;image;fontSize=12;image=img/lib/azure2/general/Subscriptions.svg;" parent="1" vertex="1">
          <mxGeometry x="261.49" y="224" width="18.59" height="30" as="geometry" />
        </mxCell>
        <mxCell id="25LvW-JFgtDjOyR0rEGd-30" value="" style="aspect=fixed;html=1;points=[];align=center;image;fontSize=12;image=img/lib/azure2/general/Subscriptions.svg;" parent="1" vertex="1">
          <mxGeometry x="360.7" y="224" width="18.59" height="30" as="geometry" />
        </mxCell>
        <mxCell id="25LvW-JFgtDjOyR0rEGd-31" value="" style="aspect=fixed;html=1;points=[];align=center;image;fontSize=12;image=img/lib/azure2/general/Subscriptions.svg;" parent="1" vertex="1">
          <mxGeometry x="444" y="224" width="18.59" height="30" as="geometry" />
        </mxCell>
        <mxCell id="25LvW-JFgtDjOyR0rEGd-32" value="Subscriptions" style="text;html=1;align=center;verticalAlign=middle;resizable=0;points=[];autosize=1;" parent="1" vertex="1">
          <mxGeometry x="270.69999999999993" y="199" width="90" height="20" as="geometry" />
        </mxCell>
        <mxCell id="25LvW-JFgtDjOyR0rEGd-33" value="" style="aspect=fixed;html=1;points=[];align=center;image;fontSize=12;image=img/lib/mscae/ResourceGroup.svg;" parent="1" vertex="1">
          <mxGeometry x="171.32999999999998" y="334" width="18.75" height="15" as="geometry" />
        </mxCell>
        <mxCell id="25LvW-JFgtDjOyR0rEGd-34" value="" style="aspect=fixed;html=1;points=[];align=center;image;fontSize=12;image=img/lib/mscae/ResourceGroup.svg;" parent="1" vertex="1">
          <mxGeometry x="190.07999999999998" y="351.5" width="18.75" height="15" as="geometry" />
        </mxCell>
        <mxCell id="25LvW-JFgtDjOyR0rEGd-35" value="" style="aspect=fixed;html=1;points=[];align=center;image;fontSize=12;image=img/lib/mscae/ResourceGroup.svg;" parent="1" vertex="1">
          <mxGeometry x="171.32999999999998" y="351.5" width="18.75" height="15" as="geometry" />
        </mxCell>
        <mxCell id="25LvW-JFgtDjOyR0rEGd-36" value="" style="aspect=fixed;html=1;points=[];align=center;image;fontSize=12;image=img/lib/mscae/ResourceGroup.svg;" parent="1" vertex="1">
          <mxGeometry x="190.07999999999998" y="334" width="18.75" height="15" as="geometry" />
        </mxCell>
        <mxCell id="25LvW-JFgtDjOyR0rEGd-45" value="RG-APP1" style="text;html=1;align=center;verticalAlign=middle;resizable=0;points=[];autosize=1;fontSize=7;" parent="1" vertex="1">
          <mxGeometry x="208.82999999999998" y="334" width="50" height="10" as="geometry" />
        </mxCell>
        <mxCell id="25LvW-JFgtDjOyR0rEGd-66" value="RG-APP2" style="text;html=1;align=center;verticalAlign=middle;resizable=0;points=[];autosize=1;fontSize=7;" parent="1" vertex="1">
          <mxGeometry x="208.82999999999998" y="344" width="50" height="10" as="geometry" />
        </mxCell>
        <mxCell id="25LvW-JFgtDjOyR0rEGd-67" value="RG-APP3" style="text;html=1;align=center;verticalAlign=middle;resizable=0;points=[];autosize=1;fontSize=7;" parent="1" vertex="1">
          <mxGeometry x="208.82999999999998" y="354" width="50" height="10" as="geometry" />
        </mxCell>
        <mxCell id="25LvW-JFgtDjOyR0rEGd-83" value="" style="aspect=fixed;html=1;points=[];align=center;image;fontSize=12;image=img/lib/azure2/compute/App_Services.svg;" parent="1" vertex="1">
          <mxGeometry x="176.07999999999998" y="374" width="20" height="20" as="geometry" />
        </mxCell>
        <mxCell id="25LvW-JFgtDjOyR0rEGd-86" value="" style="aspect=fixed;html=1;points=[];align=center;image;fontSize=12;image=img/lib/azure2/compute/Availability_Sets.svg;" parent="1" vertex="1">
          <mxGeometry x="203.20999999999998" y="369" width="30" height="30" as="geometry" />
        </mxCell>
        <mxCell id="25LvW-JFgtDjOyR0rEGd-87" value="" style="aspect=fixed;html=1;points=[];align=center;image;fontSize=12;image=img/lib/azure2/compute/Container_Services_Deprecated.svg;" parent="1" vertex="1">
          <mxGeometry x="240.07999999999998" y="374" width="22.67" height="20" as="geometry" />
        </mxCell>
        <mxCell id="25LvW-JFgtDjOyR0rEGd-89" value="" style="aspect=fixed;html=1;points=[];align=center;image;fontSize=12;image=img/lib/azure2/compute/Function_Apps.svg;" parent="1" vertex="1">
          <mxGeometry x="176.07999999999998" y="404" width="22.67" height="20" as="geometry" />
        </mxCell>
        <mxCell id="25LvW-JFgtDjOyR0rEGd-90" value="" style="aspect=fixed;html=1;points=[];align=center;image;fontSize=12;image=img/lib/azure2/compute/Virtual_Machine.svg;" parent="1" vertex="1">
          <mxGeometry x="207.43" y="404" width="21.56" height="20" as="geometry" />
        </mxCell>
        <mxCell id="25LvW-JFgtDjOyR0rEGd-91" value="" style="aspect=fixed;html=1;points=[];align=center;image;fontSize=12;image=img/lib/azure2/databases/SQL_Database.svg;" parent="1" vertex="1">
          <mxGeometry x="245.39999999999998" y="404" width="17.35" height="23.13" as="geometry" />
        </mxCell>
        <mxCell id="25LvW-JFgtDjOyR0rEGd-92" value="" style="whiteSpace=wrap;html=1;aspect=fixed;" parent="1" vertex="1">
          <mxGeometry x="313.12" y="324" width="116.87" height="116.87" as="geometry" />
        </mxCell>
        <mxCell id="25LvW-JFgtDjOyR0rEGd-93" value="" style="aspect=fixed;html=1;points=[];align=center;image;fontSize=12;image=img/lib/mscae/ResourceGroup.svg;" parent="1" vertex="1">
          <mxGeometry x="321.24" y="334" width="18.75" height="15" as="geometry" />
        </mxCell>
        <mxCell id="25LvW-JFgtDjOyR0rEGd-94" value="" style="aspect=fixed;html=1;points=[];align=center;image;fontSize=12;image=img/lib/mscae/ResourceGroup.svg;" parent="1" vertex="1">
          <mxGeometry x="339.99" y="351.5" width="18.75" height="15" as="geometry" />
        </mxCell>
        <mxCell id="25LvW-JFgtDjOyR0rEGd-95" value="" style="aspect=fixed;html=1;points=[];align=center;image;fontSize=12;image=img/lib/mscae/ResourceGroup.svg;" parent="1" vertex="1">
          <mxGeometry x="321.24" y="351.5" width="18.75" height="15" as="geometry" />
        </mxCell>
        <mxCell id="25LvW-JFgtDjOyR0rEGd-96" value="" style="aspect=fixed;html=1;points=[];align=center;image;fontSize=12;image=img/lib/mscae/ResourceGroup.svg;" parent="1" vertex="1">
          <mxGeometry x="339.99" y="334" width="18.75" height="15" as="geometry" />
        </mxCell>
        <mxCell id="25LvW-JFgtDjOyR0rEGd-97" value="RG-APP1" style="text;html=1;align=center;verticalAlign=middle;resizable=0;points=[];autosize=1;fontSize=7;" parent="1" vertex="1">
          <mxGeometry x="358.74" y="334" width="50" height="10" as="geometry" />
        </mxCell>
        <mxCell id="25LvW-JFgtDjOyR0rEGd-98" value="RG-APP2" style="text;html=1;align=center;verticalAlign=middle;resizable=0;points=[];autosize=1;fontSize=7;" parent="1" vertex="1">
          <mxGeometry x="358.74" y="344" width="50" height="10" as="geometry" />
        </mxCell>
        <mxCell id="25LvW-JFgtDjOyR0rEGd-99" value="RG-APP3" style="text;html=1;align=center;verticalAlign=middle;resizable=0;points=[];autosize=1;fontSize=7;" parent="1" vertex="1">
          <mxGeometry x="358.74" y="354" width="50" height="10" as="geometry" />
        </mxCell>
        <mxCell id="25LvW-JFgtDjOyR0rEGd-100" value="" style="aspect=fixed;html=1;points=[];align=center;image;fontSize=12;image=img/lib/azure2/compute/App_Services.svg;" parent="1" vertex="1">
          <mxGeometry x="325.99" y="374" width="20" height="20" as="geometry" />
        </mxCell>
        <mxCell id="25LvW-JFgtDjOyR0rEGd-101" value="" style="aspect=fixed;html=1;points=[];align=center;image;fontSize=12;image=img/lib/azure2/compute/Availability_Sets.svg;" parent="1" vertex="1">
          <mxGeometry x="353.12" y="369" width="30" height="30" as="geometry" />
        </mxCell>
        <mxCell id="25LvW-JFgtDjOyR0rEGd-102" value="" style="aspect=fixed;html=1;points=[];align=center;image;fontSize=12;image=img/lib/azure2/compute/Container_Services_Deprecated.svg;" parent="1" vertex="1">
          <mxGeometry x="389.99" y="374" width="22.67" height="20" as="geometry" />
        </mxCell>
        <mxCell id="25LvW-JFgtDjOyR0rEGd-103" value="" style="aspect=fixed;html=1;points=[];align=center;image;fontSize=12;image=img/lib/azure2/compute/Function_Apps.svg;" parent="1" vertex="1">
          <mxGeometry x="325.99" y="404" width="22.67" height="20" as="geometry" />
        </mxCell>
        <mxCell id="25LvW-JFgtDjOyR0rEGd-104" value="" style="aspect=fixed;html=1;points=[];align=center;image;fontSize=12;image=img/lib/azure2/compute/Virtual_Machine.svg;" parent="1" vertex="1">
          <mxGeometry x="357.34000000000003" y="404" width="21.56" height="20" as="geometry" />
        </mxCell>
        <mxCell id="25LvW-JFgtDjOyR0rEGd-105" value="" style="aspect=fixed;html=1;points=[];align=center;image;fontSize=12;image=img/lib/azure2/databases/SQL_Database.svg;" parent="1" vertex="1">
          <mxGeometry x="395.31" y="404" width="17.35" height="23.13" as="geometry" />
        </mxCell>
        <mxCell id="25LvW-JFgtDjOyR0rEGd-107" value="" style="whiteSpace=wrap;html=1;aspect=fixed;" parent="1" vertex="1">
          <mxGeometry x="458.67" y="324" width="116.87" height="116.87" as="geometry" />
        </mxCell>
        <mxCell id="25LvW-JFgtDjOyR0rEGd-108" value="" style="aspect=fixed;html=1;points=[];align=center;image;fontSize=12;image=img/lib/mscae/ResourceGroup.svg;" parent="1" vertex="1">
          <mxGeometry x="466.79" y="334" width="18.75" height="15" as="geometry" />
        </mxCell>
        <mxCell id="25LvW-JFgtDjOyR0rEGd-109" value="" style="aspect=fixed;html=1;points=[];align=center;image;fontSize=12;image=img/lib/mscae/ResourceGroup.svg;" parent="1" vertex="1">
          <mxGeometry x="485.54" y="351.5" width="18.75" height="15" as="geometry" />
        </mxCell>
        <mxCell id="25LvW-JFgtDjOyR0rEGd-110" value="" style="aspect=fixed;html=1;points=[];align=center;image;fontSize=12;image=img/lib/mscae/ResourceGroup.svg;" parent="1" vertex="1">
          <mxGeometry x="466.79" y="351.5" width="18.75" height="15" as="geometry" />
        </mxCell>
        <mxCell id="25LvW-JFgtDjOyR0rEGd-111" value="" style="aspect=fixed;html=1;points=[];align=center;image;fontSize=12;image=img/lib/mscae/ResourceGroup.svg;" parent="1" vertex="1">
          <mxGeometry x="485.54" y="334" width="18.75" height="15" as="geometry" />
        </mxCell>
        <mxCell id="25LvW-JFgtDjOyR0rEGd-112" value="RG-APP1" style="text;html=1;align=center;verticalAlign=middle;resizable=0;points=[];autosize=1;fontSize=7;" parent="1" vertex="1">
          <mxGeometry x="504.29" y="334" width="50" height="10" as="geometry" />
        </mxCell>
        <mxCell id="25LvW-JFgtDjOyR0rEGd-113" value="RG-APP2" style="text;html=1;align=center;verticalAlign=middle;resizable=0;points=[];autosize=1;fontSize=7;" parent="1" vertex="1">
          <mxGeometry x="504.29" y="344" width="50" height="10" as="geometry" />
        </mxCell>
        <mxCell id="25LvW-JFgtDjOyR0rEGd-114" value="RG-APP3" style="text;html=1;align=center;verticalAlign=middle;resizable=0;points=[];autosize=1;fontSize=7;" parent="1" vertex="1">
          <mxGeometry x="504.29" y="354" width="50" height="10" as="geometry" />
        </mxCell>
        <mxCell id="25LvW-JFgtDjOyR0rEGd-115" value="" style="aspect=fixed;html=1;points=[];align=center;image;fontSize=12;image=img/lib/azure2/compute/App_Services.svg;" parent="1" vertex="1">
          <mxGeometry x="471.54" y="374" width="20" height="20" as="geometry" />
        </mxCell>
        <mxCell id="25LvW-JFgtDjOyR0rEGd-116" value="" style="aspect=fixed;html=1;points=[];align=center;image;fontSize=12;image=img/lib/azure2/compute/Availability_Sets.svg;" parent="1" vertex="1">
          <mxGeometry x="498.67" y="369" width="30" height="30" as="geometry" />
        </mxCell>
        <mxCell id="25LvW-JFgtDjOyR0rEGd-117" value="" style="aspect=fixed;html=1;points=[];align=center;image;fontSize=12;image=img/lib/azure2/compute/Container_Services_Deprecated.svg;" parent="1" vertex="1">
          <mxGeometry x="535.54" y="374" width="22.67" height="20" as="geometry" />
        </mxCell>
        <mxCell id="25LvW-JFgtDjOyR0rEGd-118" value="" style="aspect=fixed;html=1;points=[];align=center;image;fontSize=12;image=img/lib/azure2/compute/Function_Apps.svg;" parent="1" vertex="1">
          <mxGeometry x="471.54" y="404" width="22.67" height="20" as="geometry" />
        </mxCell>
        <mxCell id="25LvW-JFgtDjOyR0rEGd-119" value="" style="aspect=fixed;html=1;points=[];align=center;image;fontSize=12;image=img/lib/azure2/compute/Virtual_Machine.svg;" parent="1" vertex="1">
          <mxGeometry x="502.89000000000004" y="404" width="21.56" height="20" as="geometry" />
        </mxCell>
        <mxCell id="25LvW-JFgtDjOyR0rEGd-120" value="" style="aspect=fixed;html=1;points=[];align=center;image;fontSize=12;image=img/lib/azure2/databases/SQL_Database.svg;" parent="1" vertex="1">
          <mxGeometry x="540.8600000000001" y="404" width="17.35" height="23.13" as="geometry" />
        </mxCell>
        <mxCell id="25LvW-JFgtDjOyR0rEGd-121" value="Subscriptions" style="text;html=1;align=center;verticalAlign=middle;resizable=0;points=[];autosize=1;" parent="1" vertex="1">
          <mxGeometry x="378.8999999999999" y="199" width="90" height="20" as="geometry" />
        </mxCell>
        <mxCell id="25LvW-JFgtDjOyR0rEGd-123" value="" style="aspect=fixed;html=1;points=[];align=center;image;fontSize=12;image=img/lib/azure2/management_governance/Policy.svg;" parent="1" vertex="1">
          <mxGeometry x="534.99" y="120" width="13.13" height="14" as="geometry" />
        </mxCell>
        <mxCell id="un5sAC3a2ipCCexAvyBw-26" style="edgeStyle=elbowEdgeStyle;rounded=1;orthogonalLoop=1;jettySize=auto;elbow=vertical;html=1;dashed=1;strokeColor=#0000CC;fontSize=10;" edge="1" parent="1" source="IpSXLrwP37XdnlG8DyKs-1">
          <mxGeometry relative="1" as="geometry">
            <mxPoint x="98" y="470" as="targetPoint" />
            <Array as="points">
              <mxPoint x="350" y="100" />
            </Array>
          </mxGeometry>
        </mxCell>
        <mxCell id="IpSXLrwP37XdnlG8DyKs-1" value="" style="aspect=fixed;html=1;points=[];align=center;image;fontSize=12;image=img/lib/azure2/identity/Azure_Active_Directory.svg;" parent="1" vertex="1">
          <mxGeometry x="718.6" y="144" width="32.81" height="30" as="geometry" />
        </mxCell>
        <mxCell id="IpSXLrwP37XdnlG8DyKs-3" value="Azure Active Directory" style="text;html=1;align=center;verticalAlign=middle;resizable=0;points=[];autosize=1;fontSize=10;fontStyle=1" parent="1" vertex="1">
          <mxGeometry x="677.14" y="174" width="120" height="20" as="geometry" />
        </mxCell>
        <mxCell id="IpSXLrwP37XdnlG8DyKs-87" style="edgeStyle=orthogonalEdgeStyle;rounded=1;orthogonalLoop=1;jettySize=auto;html=1;entryX=1.003;entryY=-0.104;entryDx=0;entryDy=0;entryPerimeter=0;fontSize=6;" parent="1" source="IpSXLrwP37XdnlG8DyKs-6" target="25LvW-JFgtDjOyR0rEGd-22" edge="1">
          <mxGeometry relative="1" as="geometry" />
        </mxCell>
        <mxCell id="IpSXLrwP37XdnlG8DyKs-6" value="" style="aspect=fixed;html=1;points=[];align=center;image;fontSize=12;image=img/lib/azure2/identity/Groups.svg;" parent="1" vertex="1">
          <mxGeometry x="720" y="201.66" width="29.64" height="24.4" as="geometry" />
        </mxCell>
        <mxCell id="IpSXLrwP37XdnlG8DyKs-20" style="edgeStyle=orthogonalEdgeStyle;rounded=0;orthogonalLoop=1;jettySize=auto;html=1;fontSize=10;" parent="1" source="IpSXLrwP37XdnlG8DyKs-9" edge="1">
          <mxGeometry relative="1" as="geometry">
            <mxPoint x="550" y="256.5" as="targetPoint" />
          </mxGeometry>
        </mxCell>
        <mxCell id="IpSXLrwP37XdnlG8DyKs-9" value="" style="aspect=fixed;html=1;points=[];align=center;image;fontSize=12;image=img/lib/azure2/compute/Mesh_Applications.svg;" parent="1" vertex="1">
          <mxGeometry x="724.64" y="244" width="25.36" height="25.36" as="geometry" />
        </mxCell>
        <mxCell id="IpSXLrwP37XdnlG8DyKs-11" value="Auzre PIM" style="text;html=1;align=center;verticalAlign=middle;resizable=0;points=[];autosize=1;fontSize=10;" parent="1" vertex="1">
          <mxGeometry x="707.14" y="269" width="60" height="20" as="geometry" />
        </mxCell>
        <mxCell id="IpSXLrwP37XdnlG8DyKs-19" style="edgeStyle=orthogonalEdgeStyle;rounded=0;orthogonalLoop=1;jettySize=auto;html=1;fontSize=10;" parent="1" source="IpSXLrwP37XdnlG8DyKs-13" edge="1">
          <mxGeometry relative="1" as="geometry">
            <mxPoint x="550" y="234" as="targetPoint" />
          </mxGeometry>
        </mxCell>
        <mxCell id="IpSXLrwP37XdnlG8DyKs-13" value="AD Groups" style="text;html=1;align=center;verticalAlign=middle;resizable=0;points=[];autosize=1;fontSize=10;" parent="1" vertex="1">
          <mxGeometry x="705" y="224" width="60" height="20" as="geometry" />
        </mxCell>
        <mxCell id="IpSXLrwP37XdnlG8DyKs-23" style="edgeStyle=orthogonalEdgeStyle;rounded=0;orthogonalLoop=1;jettySize=auto;html=1;fontSize=8;" parent="1" source="IpSXLrwP37XdnlG8DyKs-14" edge="1">
          <mxGeometry relative="1" as="geometry">
            <mxPoint x="600" y="346" as="targetPoint" />
          </mxGeometry>
        </mxCell>
        <mxCell id="IpSXLrwP37XdnlG8DyKs-14" value="" style="aspect=fixed;html=1;points=[];align=center;image;fontSize=12;image=img/lib/azure2/identity/Groups.svg;" parent="1" vertex="1">
          <mxGeometry x="722.14" y="334" width="29.64" height="24.4" as="geometry" />
        </mxCell>
        <mxCell id="IpSXLrwP37XdnlG8DyKs-24" style="edgeStyle=orthogonalEdgeStyle;rounded=0;orthogonalLoop=1;jettySize=auto;html=1;fontSize=8;" parent="1" source="IpSXLrwP37XdnlG8DyKs-15" edge="1">
          <mxGeometry relative="1" as="geometry">
            <mxPoint x="600" y="389" as="targetPoint" />
          </mxGeometry>
        </mxCell>
        <mxCell id="IpSXLrwP37XdnlG8DyKs-15" value="" style="aspect=fixed;html=1;points=[];align=center;image;fontSize=12;image=img/lib/azure2/compute/Mesh_Applications.svg;" parent="1" vertex="1">
          <mxGeometry x="726.78" y="376.34000000000003" width="25" height="25" as="geometry" />
        </mxCell>
        <mxCell id="IpSXLrwP37XdnlG8DyKs-16" value="Auzre PIM" style="text;html=1;align=center;verticalAlign=middle;resizable=0;points=[];autosize=1;fontSize=10;" parent="1" vertex="1">
          <mxGeometry x="709.28" y="401.34000000000003" width="60" height="20" as="geometry" />
        </mxCell>
        <mxCell id="IpSXLrwP37XdnlG8DyKs-17" value="AD Groups" style="text;html=1;align=center;verticalAlign=middle;resizable=0;points=[];autosize=1;fontSize=10;" parent="1" vertex="1">
          <mxGeometry x="707.14" y="356.34000000000003" width="60" height="20" as="geometry" />
        </mxCell>
        <mxCell id="IpSXLrwP37XdnlG8DyKs-21" value="Read only Access" style="text;html=1;align=center;verticalAlign=middle;resizable=0;points=[];autosize=1;fontSize=8;" parent="1" vertex="1">
          <mxGeometry x="575.54" y="214" width="80" height="20" as="geometry" />
        </mxCell>
        <mxCell id="IpSXLrwP37XdnlG8DyKs-22" value="Elevated Contributor Access" style="text;html=1;align=center;verticalAlign=middle;resizable=0;points=[];autosize=1;fontSize=8;" parent="1" vertex="1">
          <mxGeometry x="560" y="239" width="120" height="20" as="geometry" />
        </mxCell>
        <mxCell id="IpSXLrwP37XdnlG8DyKs-27" value="" style="aspect=fixed;html=1;points=[];align=center;image;fontSize=12;image=img/lib/mscae/ResourceGroup.svg;" parent="1" vertex="1">
          <mxGeometry x="541.25" y="299" width="18.75" height="15" as="geometry" />
        </mxCell>
        <mxCell id="IpSXLrwP37XdnlG8DyKs-28" value="Resoruce Groups" style="text;html=1;align=center;verticalAlign=middle;resizable=0;points=[];autosize=1;fontSize=8;" parent="1" vertex="1">
          <mxGeometry x="554.29" y="296.5" width="80" height="20" as="geometry" />
        </mxCell>
        <mxCell id="IpSXLrwP37XdnlG8DyKs-29" value="" style="aspect=fixed;html=1;points=[];align=center;image;fontSize=12;image=img/lib/mscae/ResourceGroup.svg;" parent="1" vertex="1">
          <mxGeometry x="130" y="299" width="18.75" height="15" as="geometry" />
        </mxCell>
        <mxCell id="IpSXLrwP37XdnlG8DyKs-30" value="Resoruce Groups" style="text;html=1;align=center;verticalAlign=middle;resizable=0;points=[];autosize=1;fontSize=8;" parent="1" vertex="1">
          <mxGeometry x="143.03999999999996" y="296.5" width="80" height="20" as="geometry" />
        </mxCell>
        <mxCell id="IpSXLrwP37XdnlG8DyKs-31" value="Read only Access" style="text;html=1;align=center;verticalAlign=middle;resizable=0;points=[];autosize=1;fontSize=8;" parent="1" vertex="1">
          <mxGeometry x="610" y="329" width="80" height="20" as="geometry" />
        </mxCell>
        <mxCell id="IpSXLrwP37XdnlG8DyKs-32" value="Elevated Contributor Access" style="text;html=1;align=center;verticalAlign=middle;resizable=0;points=[];autosize=1;fontSize=8;" parent="1" vertex="1">
          <mxGeometry x="589.28" y="364" width="120" height="20" as="geometry" />
        </mxCell>
        <mxCell id="IpSXLrwP37XdnlG8DyKs-49" style="edgeStyle=orthogonalEdgeStyle;rounded=1;orthogonalLoop=1;jettySize=auto;html=1;fontSize=10;" parent="1" source="IpSXLrwP37XdnlG8DyKs-36" target="IpSXLrwP37XdnlG8DyKs-40" edge="1">
          <mxGeometry relative="1" as="geometry" />
        </mxCell>
        <mxCell id="IpSXLrwP37XdnlG8DyKs-36" value="" style="outlineConnect=0;dashed=0;verticalLabelPosition=bottom;verticalAlign=top;align=center;html=1;shape=mxgraph.aws3.users;fillColor=#D2D3D3;gradientColor=none;fontSize=8;" parent="1" vertex="1">
          <mxGeometry x="516.06" y="494" width="51" height="40" as="geometry" />
        </mxCell>
        <mxCell id="IpSXLrwP37XdnlG8DyKs-47" style="edgeStyle=orthogonalEdgeStyle;rounded=1;orthogonalLoop=1;jettySize=auto;html=1;fontSize=10;" parent="1" source="IpSXLrwP37XdnlG8DyKs-37" edge="1">
          <mxGeometry relative="1" as="geometry">
            <mxPoint x="810" y="364" as="targetPoint" />
          </mxGeometry>
        </mxCell>
        <mxCell id="IpSXLrwP37XdnlG8DyKs-37" value="" style="outlineConnect=0;dashed=0;verticalLabelPosition=bottom;verticalAlign=top;align=center;html=1;shape=mxgraph.aws3.users;fillColor=#D2D3D3;gradientColor=none;fontSize=8;" parent="1" vertex="1">
          <mxGeometry x="509.54" y="564" width="50.46" height="40" as="geometry" />
        </mxCell>
        <mxCell id="IpSXLrwP37XdnlG8DyKs-41" style="edgeStyle=orthogonalEdgeStyle;rounded=0;orthogonalLoop=1;jettySize=auto;html=1;entryX=1.057;entryY=0.615;entryDx=0;entryDy=0;entryPerimeter=0;fontSize=8;" parent="1" source="IpSXLrwP37XdnlG8DyKs-40" target="IpSXLrwP37XdnlG8DyKs-6" edge="1">
          <mxGeometry relative="1" as="geometry" />
        </mxCell>
        <mxCell id="IpSXLrwP37XdnlG8DyKs-40" value="" style="pointerEvents=1;shadow=0;dashed=0;html=1;strokeColor=none;fillColor=#505050;labelPosition=center;verticalLabelPosition=bottom;verticalAlign=top;outlineConnect=0;align=center;shape=mxgraph.office.users.approver;fontSize=8;" parent="1" vertex="1">
          <mxGeometry x="820" y="206.06" width="20" height="20" as="geometry" />
        </mxCell>
        <mxCell id="IpSXLrwP37XdnlG8DyKs-50" style="edgeStyle=orthogonalEdgeStyle;rounded=1;orthogonalLoop=1;jettySize=auto;html=1;entryX=0.001;entryY=0.315;entryDx=0;entryDy=0;fontSize=10;entryPerimeter=0;dashed=1;strokeColor=#3333FF;" parent="1" source="IpSXLrwP37XdnlG8DyKs-61" target="IpSXLrwP37XdnlG8DyKs-9" edge="1">
          <mxGeometry relative="1" as="geometry" />
        </mxCell>
        <mxCell id="IpSXLrwP37XdnlG8DyKs-42" value="Azure Administrators" style="text;html=1;align=center;verticalAlign=middle;resizable=0;points=[];autosize=1;fontSize=10;fontStyle=1" parent="1" vertex="1">
          <mxGeometry x="481.56" y="534" width="120" height="20" as="geometry" />
        </mxCell>
        <mxCell id="IpSXLrwP37XdnlG8DyKs-51" style="edgeStyle=orthogonalEdgeStyle;orthogonalLoop=1;jettySize=auto;html=1;fontSize=10;rounded=1;dashed=1;strokeColor=#0000FF;" parent="1" source="IpSXLrwP37XdnlG8DyKs-56" target="IpSXLrwP37XdnlG8DyKs-16" edge="1">
          <mxGeometry relative="1" as="geometry" />
        </mxCell>
        <mxCell id="IpSXLrwP37XdnlG8DyKs-45" value="Application / Business Users" style="text;html=1;align=center;verticalAlign=middle;resizable=0;points=[];autosize=1;fontSize=10;fontStyle=1" parent="1" vertex="1">
          <mxGeometry x="466.56" y="609" width="150" height="20" as="geometry" />
        </mxCell>
        <mxCell id="IpSXLrwP37XdnlG8DyKs-48" style="edgeStyle=orthogonalEdgeStyle;rounded=0;orthogonalLoop=1;jettySize=auto;html=1;entryX=0.814;entryY=0.083;entryDx=0;entryDy=0;entryPerimeter=0;fontSize=10;" parent="1" source="IpSXLrwP37XdnlG8DyKs-46" target="IpSXLrwP37XdnlG8DyKs-17" edge="1">
          <mxGeometry relative="1" as="geometry" />
        </mxCell>
        <mxCell id="IpSXLrwP37XdnlG8DyKs-46" value="" style="pointerEvents=1;shadow=0;dashed=0;html=1;strokeColor=none;fillColor=#505050;labelPosition=center;verticalLabelPosition=bottom;verticalAlign=top;outlineConnect=0;align=center;shape=mxgraph.office.users.approver;fontSize=8;" parent="1" vertex="1">
          <mxGeometry x="800" y="339" width="20" height="20" as="geometry" />
        </mxCell>
        <mxCell id="IpSXLrwP37XdnlG8DyKs-56" value="" style="pointerEvents=1;shadow=0;dashed=0;html=1;strokeColor=none;fillColor=#505050;labelPosition=center;verticalLabelPosition=bottom;verticalAlign=top;outlineConnect=0;align=center;shape=mxgraph.office.users.approver;fontSize=8;" parent="1" vertex="1">
          <mxGeometry x="729.28" y="534" width="20" height="20" as="geometry" />
        </mxCell>
        <mxCell id="IpSXLrwP37XdnlG8DyKs-57" style="edgeStyle=orthogonalEdgeStyle;orthogonalLoop=1;jettySize=auto;html=1;fontSize=10;rounded=1;dashed=1;strokeColor=#0000FF;" parent="1" source="IpSXLrwP37XdnlG8DyKs-45" target="IpSXLrwP37XdnlG8DyKs-56" edge="1">
          <mxGeometry relative="1" as="geometry">
            <mxPoint x="616.5600000000002" y="619" as="sourcePoint" />
            <mxPoint x="739.2666666666667" y="421.34000000000003" as="targetPoint" />
          </mxGeometry>
        </mxCell>
        <mxCell id="IpSXLrwP37XdnlG8DyKs-58" value="Group manager to&lt;br&gt;add/approve&lt;br&gt;user" style="text;html=1;align=center;verticalAlign=middle;resizable=0;points=[];autosize=1;fontSize=10;" parent="1" vertex="1">
          <mxGeometry x="830" y="214" width="100" height="40" as="geometry" />
        </mxCell>
        <mxCell id="IpSXLrwP37XdnlG8DyKs-59" value="Group manager to&lt;br&gt;add/approve&lt;br&gt;user" style="text;html=1;align=center;verticalAlign=middle;resizable=0;points=[];autosize=1;fontSize=10;" parent="1" vertex="1">
          <mxGeometry x="820" y="339" width="100" height="40" as="geometry" />
        </mxCell>
        <mxCell id="IpSXLrwP37XdnlG8DyKs-60" value="Auto/Mannual approve&lt;br style=&quot;font-size: 8px;&quot;&gt;elevate access" style="text;html=1;align=center;verticalAlign=middle;resizable=0;points=[];autosize=1;fontSize=8;" parent="1" vertex="1">
          <mxGeometry x="636.56" y="550" width="100" height="30" as="geometry" />
        </mxCell>
        <mxCell id="IpSXLrwP37XdnlG8DyKs-61" value="" style="pointerEvents=1;shadow=0;dashed=0;html=1;strokeColor=none;fillColor=#505050;labelPosition=center;verticalLabelPosition=bottom;verticalAlign=top;outlineConnect=0;align=center;shape=mxgraph.office.users.approver;fontSize=8;" parent="1" vertex="1">
          <mxGeometry x="655.54" y="427.13" width="20" height="20" as="geometry" />
        </mxCell>
        <mxCell id="IpSXLrwP37XdnlG8DyKs-63" style="edgeStyle=orthogonalEdgeStyle;rounded=1;orthogonalLoop=1;jettySize=auto;html=1;entryX=0.001;entryY=0.315;entryDx=0;entryDy=0;fontSize=10;entryPerimeter=0;dashed=1;strokeColor=#3333FF;" parent="1" source="IpSXLrwP37XdnlG8DyKs-42" target="IpSXLrwP37XdnlG8DyKs-61" edge="1">
          <mxGeometry relative="1" as="geometry">
            <mxPoint x="601.5600000000002" y="544.0666666666666" as="sourcePoint" />
            <mxPoint x="724.66536" y="251.98840000000007" as="targetPoint" />
          </mxGeometry>
        </mxCell>
        <mxCell id="IpSXLrwP37XdnlG8DyKs-64" value="Auto/Mannual approve&lt;br style=&quot;font-size: 8px;&quot;&gt;elevate access" style="text;html=1;align=center;verticalAlign=middle;resizable=0;points=[];autosize=1;fontSize=8;" parent="1" vertex="1">
          <mxGeometry x="624.56" y="447.13" width="100" height="30" as="geometry" />
        </mxCell>
        <mxCell id="IpSXLrwP37XdnlG8DyKs-70" value="" style="shape=image;html=1;verticalAlign=top;verticalLabelPosition=bottom;labelBackgroundColor=#ffffff;imageAspect=0;aspect=fixed;image=https://cdn3.iconfinder.com/data/icons/letters-and-numbers-1/32/number_2_green-128.png;fontSize=8;" parent="1" vertex="1">
          <mxGeometry x="235.77999999999997" y="194" width="14" height="14" as="geometry" />
        </mxCell>
        <mxCell id="IpSXLrwP37XdnlG8DyKs-75" value="" style="shape=image;html=1;verticalAlign=top;verticalLabelPosition=bottom;labelBackgroundColor=#ffffff;imageAspect=0;aspect=fixed;image=https://cdn3.iconfinder.com/data/icons/letters-and-numbers-1/32/number_3_blue-128.png;fontSize=8;" parent="1" vertex="1">
          <mxGeometry x="758" y="146" width="14" height="14" as="geometry" />
        </mxCell>
        <mxCell id="IpSXLrwP37XdnlG8DyKs-76" value="" style="shape=image;html=1;verticalAlign=top;verticalLabelPosition=bottom;labelBackgroundColor=#ffffff;imageAspect=0;aspect=fixed;image=https://cdn3.iconfinder.com/data/icons/letters-and-numbers-1/32/number_4_green-128.png;fontSize=6;" parent="1" vertex="1">
          <mxGeometry x="840" y="192" width="14" height="14" as="geometry" />
        </mxCell>
        <mxCell id="IpSXLrwP37XdnlG8DyKs-77" value="" style="shape=image;html=1;verticalAlign=top;verticalLabelPosition=bottom;labelBackgroundColor=#ffffff;imageAspect=0;aspect=fixed;image=https://cdn3.iconfinder.com/data/icons/letters-and-numbers-1/32/number_5_green-128.png;fontSize=6;" parent="1" vertex="1">
          <mxGeometry x="466.79" y="504.5" width="14" height="14" as="geometry" />
        </mxCell>
        <mxCell id="IpSXLrwP37XdnlG8DyKs-78" value="" style="shape=image;html=1;verticalAlign=top;verticalLabelPosition=bottom;labelBackgroundColor=#ffffff;imageAspect=0;aspect=fixed;image=https://cdn3.iconfinder.com/data/icons/letters-and-numbers-1/32/number_6_blue-128.png;fontSize=6;" parent="1" vertex="1">
          <mxGeometry x="465.56" y="576" width="14" height="14" as="geometry" />
        </mxCell>
        <mxCell id="IpSXLrwP37XdnlG8DyKs-81" value="" style="shape=image;html=1;verticalAlign=top;verticalLabelPosition=bottom;labelBackgroundColor=#ffffff;imageAspect=0;aspect=fixed;image=https://cdn3.iconfinder.com/data/icons/letters-and-numbers-1/32/number_1_green-128.png;fontSize=6;" parent="1" vertex="1">
          <mxGeometry x="446.59000000000003" y="104" width="14" height="14" as="geometry" />
        </mxCell>
        <mxCell id="un5sAC3a2ipCCexAvyBw-1" value="" style="aspect=fixed;html=1;points=[];align=center;image;fontSize=12;image=img/lib/azure2/intune/Azure_AD_Roles_and_Administrators.svg;" vertex="1" parent="1">
          <mxGeometry x="20" y="517" width="37" height="37" as="geometry" />
        </mxCell>
        <mxCell id="un5sAC3a2ipCCexAvyBw-14" style="edgeStyle=elbowEdgeStyle;orthogonalLoop=1;jettySize=auto;elbow=vertical;html=1;fontSize=14;rounded=1;strokeColor=#3333FF;" edge="1" parent="1" source="un5sAC3a2ipCCexAvyBw-2" target="25LvW-JFgtDjOyR0rEGd-2">
          <mxGeometry relative="1" as="geometry">
            <Array as="points">
              <mxPoint x="80" y="150" />
              <mxPoint x="90" y="250" />
              <mxPoint x="120" y="150" />
            </Array>
          </mxGeometry>
        </mxCell>
        <mxCell id="un5sAC3a2ipCCexAvyBw-2" value="Owner" style="text;html=1;align=center;verticalAlign=middle;resizable=0;points=[];autosize=1;fontStyle=1;fontSize=14;" vertex="1" parent="1">
          <mxGeometry x="70" y="514" width="60" height="20" as="geometry" />
        </mxCell>
        <mxCell id="un5sAC3a2ipCCexAvyBw-3" value="&lt;b&gt;Azure &lt;br&gt;RBAC&amp;nbsp;&lt;br&gt;Roles&lt;/b&gt;" style="text;html=1;align=left;verticalAlign=middle;resizable=0;points=[];autosize=1;" vertex="1" parent="1">
          <mxGeometry x="13.5" y="558" width="50" height="50" as="geometry" />
        </mxCell>
        <mxCell id="un5sAC3a2ipCCexAvyBw-13" style="edgeStyle=elbowEdgeStyle;rounded=0;orthogonalLoop=1;jettySize=auto;elbow=vertical;html=1;fontSize=14;strokeColor=#0000CC;" edge="1" parent="1" source="un5sAC3a2ipCCexAvyBw-4">
          <mxGeometry relative="1" as="geometry">
            <mxPoint x="370" y="470" as="targetPoint" />
            <Array as="points">
              <mxPoint x="200" y="554" />
              <mxPoint x="140" y="540" />
              <mxPoint x="160" y="520" />
              <mxPoint x="190" y="500" />
              <mxPoint x="180" y="500" />
              <mxPoint x="170" y="520" />
              <mxPoint x="180" y="507" />
            </Array>
          </mxGeometry>
        </mxCell>
        <mxCell id="un5sAC3a2ipCCexAvyBw-4" value="Contributor" style="text;html=1;align=center;verticalAlign=middle;resizable=0;points=[];autosize=1;fontStyle=1;fontSize=14;" vertex="1" parent="1">
          <mxGeometry x="69.99999999999999" y="542" width="90" height="20" as="geometry" />
        </mxCell>
        <mxCell id="un5sAC3a2ipCCexAvyBw-15" style="edgeStyle=elbowEdgeStyle;rounded=1;orthogonalLoop=1;jettySize=auto;elbow=vertical;html=1;strokeColor=#0000CC;fontSize=14;entryX=0;entryY=0.5;entryDx=0;entryDy=0;" edge="1" parent="1" source="un5sAC3a2ipCCexAvyBw-9" target="25LvW-JFgtDjOyR0rEGd-10">
          <mxGeometry relative="1" as="geometry">
            <mxPoint x="100" y="146.8627211626838" as="targetPoint" />
            <Array as="points">
              <mxPoint x="60" y="390" />
              <mxPoint x="30" y="290" />
              <mxPoint x="90" y="260" />
              <mxPoint x="30" y="130" />
            </Array>
          </mxGeometry>
        </mxCell>
        <mxCell id="un5sAC3a2ipCCexAvyBw-19" style="edgeStyle=elbowEdgeStyle;rounded=1;orthogonalLoop=1;jettySize=auto;elbow=vertical;html=1;entryX=-0.009;entryY=0.281;entryDx=0;entryDy=0;entryPerimeter=0;strokeColor=#0000CC;fontSize=14;dashed=1;" edge="1" parent="1" source="un5sAC3a2ipCCexAvyBw-9" target="25LvW-JFgtDjOyR0rEGd-2">
          <mxGeometry relative="1" as="geometry">
            <Array as="points">
              <mxPoint x="50" y="280" />
              <mxPoint x="20" y="290" />
              <mxPoint x="160" y="260" />
              <mxPoint x="40" y="290" />
              <mxPoint x="40" y="270" />
              <mxPoint x="40" y="280" />
              <mxPoint x="40" y="270" />
              <mxPoint x="40" y="320" />
              <mxPoint x="100" y="260" />
            </Array>
          </mxGeometry>
        </mxCell>
        <mxCell id="un5sAC3a2ipCCexAvyBw-9" value="Reader" style="text;html=1;align=center;verticalAlign=middle;resizable=0;points=[];autosize=1;fontStyle=1;fontSize=14;" vertex="1" parent="1">
          <mxGeometry x="69.99999999999999" y="570" width="60" height="20" as="geometry" />
        </mxCell>
        <mxCell id="un5sAC3a2ipCCexAvyBw-18" value="" style="shape=image;html=1;verticalAlign=top;verticalLabelPosition=bottom;labelBackgroundColor=#ffffff;imageAspect=0;aspect=fixed;image=https://cdn3.iconfinder.com/data/icons/letters-and-numbers-1/32/number_3_blue-128.png;fontSize=8;" vertex="1" parent="1">
          <mxGeometry x="20" y="455.13" width="14" height="14" as="geometry" />
        </mxCell>
        <mxCell id="un5sAC3a2ipCCexAvyBw-21" value="" style="aspect=fixed;html=1;points=[];align=center;image;fontSize=12;image=img/lib/azure2/identity/Groups.svg;" vertex="1" parent="1">
          <mxGeometry x="83" y="485.1" width="30" height="24.69" as="geometry" />
        </mxCell>
        <mxCell id="un5sAC3a2ipCCexAvyBw-22" value="AD &lt;br&gt;Groups" style="text;html=1;align=left;verticalAlign=middle;resizable=0;points=[];autosize=1;fontSize=10;fontStyle=1" vertex="1" parent="1">
          <mxGeometry x="117" y="483.5" width="50" height="30" as="geometry" />
        </mxCell>
        <mxCell id="un5sAC3a2ipCCexAvyBw-24" value="Azure RBAC roles assign&lt;br&gt;through AD groups" style="text;html=1;align=center;verticalAlign=middle;resizable=0;points=[];autosize=1;fontSize=10;" vertex="1" parent="1">
          <mxGeometry x="161" y="480" width="130" height="30" as="geometry" />
        </mxCell>
      </root>
    </mxGraphModel>
  </diagram>
  <diagram id="_Ib84NTtDXc_efApmARf" name="AD Group Flow">
    <mxGraphModel dx="782" dy="380" grid="1" gridSize="10" guides="1" tooltips="1" connect="1" arrows="1" fold="1" page="1" pageScale="1" pageWidth="1169" pageHeight="827" math="0" shadow="0">
      <root>
        <mxCell id="P2OlRVouShTBObQtprSa-0" />
        <mxCell id="P2OlRVouShTBObQtprSa-1" parent="P2OlRVouShTBObQtprSa-0" />
        <mxCell id="Ycxgk3xf8WvET4Z8Bq6O-7" style="edgeStyle=elbowEdgeStyle;rounded=1;orthogonalLoop=1;jettySize=auto;elbow=vertical;html=1;startArrow=none;startFill=0;strokeColor=#0000CC;fontSize=10;" edge="1" parent="P2OlRVouShTBObQtprSa-1" source="1MOUHBvqsCFy0V0bBK-H-0" target="1MOUHBvqsCFy0V0bBK-H-26">
          <mxGeometry relative="1" as="geometry">
            <Array as="points">
              <mxPoint x="380" y="330" />
              <mxPoint x="390" y="270" />
              <mxPoint x="310" y="320" />
              <mxPoint x="380" y="300" />
            </Array>
          </mxGeometry>
        </mxCell>
        <mxCell id="Ycxgk3xf8WvET4Z8Bq6O-8" style="edgeStyle=elbowEdgeStyle;rounded=1;orthogonalLoop=1;jettySize=auto;elbow=vertical;html=1;startArrow=none;startFill=0;strokeColor=#0000CC;fontSize=10;" edge="1" parent="P2OlRVouShTBObQtprSa-1" source="1MOUHBvqsCFy0V0bBK-H-0">
          <mxGeometry relative="1" as="geometry">
            <mxPoint x="370" y="380" as="targetPoint" />
            <Array as="points">
              <mxPoint x="400" y="350" />
              <mxPoint x="400" y="310" />
              <mxPoint x="400" y="320" />
            </Array>
          </mxGeometry>
        </mxCell>
        <mxCell id="1MOUHBvqsCFy0V0bBK-H-0" value="&lt;div style=&quot;text-align: left&quot;&gt;Parent AD Group&lt;/div&gt;&lt;div style=&quot;text-align: left&quot;&gt;Corp-Azure-Reader&lt;/div&gt;&lt;div style=&quot;text-align: left&quot;&gt;&lt;br&gt;&lt;/div&gt;" style="rounded=0;whiteSpace=wrap;html=1;fontSize=10;" vertex="1" parent="P2OlRVouShTBObQtprSa-1">
          <mxGeometry x="300" y="140" width="130" height="100" as="geometry" />
        </mxCell>
        <mxCell id="1MOUHBvqsCFy0V0bBK-H-21" style="edgeStyle=elbowEdgeStyle;rounded=1;orthogonalLoop=1;jettySize=auto;elbow=vertical;html=1;entryX=0.5;entryY=0;entryDx=0;entryDy=0;dashed=1;strokeColor=#0000CC;fontSize=10;" edge="1" parent="P2OlRVouShTBObQtprSa-1" source="1MOUHBvqsCFy0V0bBK-H-1" target="1MOUHBvqsCFy0V0bBK-H-0">
          <mxGeometry relative="1" as="geometry">
            <Array as="points">
              <mxPoint x="300" y="90" />
            </Array>
          </mxGeometry>
        </mxCell>
        <mxCell id="1MOUHBvqsCFy0V0bBK-H-1" value="Corp-App1-ADGroup" style="rounded=0;whiteSpace=wrap;html=1;fontSize=10;" vertex="1" parent="P2OlRVouShTBObQtprSa-1">
          <mxGeometry x="130" y="70" width="120" height="60" as="geometry" />
        </mxCell>
        <mxCell id="1MOUHBvqsCFy0V0bBK-H-2" value="Corp-App2-ADGroup" style="rounded=0;whiteSpace=wrap;html=1;fontSize=10;" vertex="1" parent="P2OlRVouShTBObQtprSa-1">
          <mxGeometry x="160" y="110" width="120" height="60" as="geometry" />
        </mxCell>
        <mxCell id="1MOUHBvqsCFy0V0bBK-H-3" value="Corp-AzureAdmin-ADGroup" style="rounded=0;whiteSpace=wrap;html=1;fontSize=10;" vertex="1" parent="P2OlRVouShTBObQtprSa-1">
          <mxGeometry x="130" y="200" width="120" height="60" as="geometry" />
        </mxCell>
        <mxCell id="1MOUHBvqsCFy0V0bBK-H-22" style="edgeStyle=elbowEdgeStyle;rounded=1;orthogonalLoop=1;jettySize=auto;elbow=vertical;html=1;dashed=1;strokeColor=#0000CC;fontSize=10;entryX=0.5;entryY=1;entryDx=0;entryDy=0;" edge="1" parent="P2OlRVouShTBObQtprSa-1" source="1MOUHBvqsCFy0V0bBK-H-4" target="1MOUHBvqsCFy0V0bBK-H-0">
          <mxGeometry relative="1" as="geometry">
            <mxPoint x="370" y="250" as="targetPoint" />
            <Array as="points">
              <mxPoint x="330" y="290" />
              <mxPoint x="310" y="280" />
            </Array>
          </mxGeometry>
        </mxCell>
        <mxCell id="1MOUHBvqsCFy0V0bBK-H-4" value="Corp-DBAdmin-ADGroup" style="rounded=0;whiteSpace=wrap;html=1;fontSize=10;" vertex="1" parent="P2OlRVouShTBObQtprSa-1">
          <mxGeometry x="160" y="250" width="120" height="60" as="geometry" />
        </mxCell>
        <mxCell id="1MOUHBvqsCFy0V0bBK-H-17" style="edgeStyle=elbowEdgeStyle;rounded=1;orthogonalLoop=1;jettySize=auto;elbow=vertical;html=1;entryX=0.017;entryY=0.65;entryDx=0;entryDy=0;entryPerimeter=0;dashed=1;strokeColor=#0000CC;fontSize=10;" edge="1" parent="P2OlRVouShTBObQtprSa-1" source="1MOUHBvqsCFy0V0bBK-H-7" target="1MOUHBvqsCFy0V0bBK-H-1">
          <mxGeometry relative="1" as="geometry" />
        </mxCell>
        <mxCell id="1MOUHBvqsCFy0V0bBK-H-18" style="edgeStyle=elbowEdgeStyle;rounded=1;orthogonalLoop=1;jettySize=auto;elbow=vertical;html=1;entryX=0;entryY=0.5;entryDx=0;entryDy=0;dashed=1;strokeColor=#0000CC;fontSize=10;" edge="1" parent="P2OlRVouShTBObQtprSa-1" source="1MOUHBvqsCFy0V0bBK-H-8" target="1MOUHBvqsCFy0V0bBK-H-3">
          <mxGeometry relative="1" as="geometry" />
        </mxCell>
        <mxCell id="1MOUHBvqsCFy0V0bBK-H-8" value="" style="aspect=fixed;html=1;points=[];align=center;image;fontSize=12;image=img/lib/azure2/identity/Groups.svg;" vertex="1" parent="P2OlRVouShTBObQtprSa-1">
          <mxGeometry x="20" y="220" width="24.29" height="20" as="geometry" />
        </mxCell>
        <mxCell id="Ycxgk3xf8WvET4Z8Bq6O-6" style="edgeStyle=elbowEdgeStyle;rounded=1;orthogonalLoop=1;jettySize=auto;elbow=vertical;html=1;entryX=0.5;entryY=0;entryDx=0;entryDy=0;startArrow=none;startFill=0;strokeColor=#0000CC;fontSize=10;" edge="1" parent="P2OlRVouShTBObQtprSa-1" source="1MOUHBvqsCFy0V0bBK-H-9" target="1MOUHBvqsCFy0V0bBK-H-16">
          <mxGeometry relative="1" as="geometry">
            <Array as="points">
              <mxPoint x="20" y="20" />
              <mxPoint x="260" y="20" />
              <mxPoint x="20" y="50" />
              <mxPoint x="270" y="20" />
            </Array>
          </mxGeometry>
        </mxCell>
        <mxCell id="1MOUHBvqsCFy0V0bBK-H-9" value="Application&amp;nbsp;&lt;br&gt;users" style="text;html=1;align=center;verticalAlign=middle;resizable=0;points=[];autosize=1;fontSize=10;" vertex="1" parent="P2OlRVouShTBObQtprSa-1">
          <mxGeometry y="120" width="70" height="30" as="geometry" />
        </mxCell>
        <mxCell id="Ycxgk3xf8WvET4Z8Bq6O-10" style="edgeStyle=elbowEdgeStyle;rounded=1;orthogonalLoop=1;jettySize=auto;elbow=vertical;html=1;startArrow=none;startFill=0;strokeColor=#0000CC;fontSize=10;exitX=0.412;exitY=-0.117;exitDx=0;exitDy=0;exitPerimeter=0;entryX=0.5;entryY=1;entryDx=0;entryDy=0;" edge="1" parent="P2OlRVouShTBObQtprSa-1" source="1MOUHBvqsCFy0V0bBK-H-8" target="1MOUHBvqsCFy0V0bBK-H-16">
          <mxGeometry relative="1" as="geometry">
            <mxPoint x="520" y="50" as="targetPoint" />
            <mxPoint x="30" y="200" as="sourcePoint" />
            <Array as="points">
              <mxPoint x="220" y="360" />
              <mxPoint x="120" y="10" />
            </Array>
          </mxGeometry>
        </mxCell>
        <mxCell id="1MOUHBvqsCFy0V0bBK-H-10" value="Azure Admin" style="text;html=1;align=center;verticalAlign=middle;resizable=0;points=[];autosize=1;fontSize=10;" vertex="1" parent="P2OlRVouShTBObQtprSa-1">
          <mxGeometry x="10" y="240" width="70" height="20" as="geometry" />
        </mxCell>
        <mxCell id="Ycxgk3xf8WvET4Z8Bq6O-11" style="edgeStyle=elbowEdgeStyle;rounded=1;orthogonalLoop=1;jettySize=auto;elbow=vertical;html=1;startArrow=none;startFill=0;strokeColor=#0000CC;fontSize=10;" edge="1" parent="P2OlRVouShTBObQtprSa-1" source="1MOUHBvqsCFy0V0bBK-H-16">
          <mxGeometry relative="1" as="geometry">
            <mxPoint x="600" y="190" as="targetPoint" />
          </mxGeometry>
        </mxCell>
        <mxCell id="1MOUHBvqsCFy0V0bBK-H-16" value="&lt;b&gt;&lt;font style=&quot;font-size: 13px&quot;&gt;Azure PIM&lt;/font&gt;&lt;/b&gt;" style="rounded=0;whiteSpace=wrap;html=1;fontSize=10;fillColor=#dae8fc;strokeColor=#6c8ebf;" vertex="1" parent="P2OlRVouShTBObQtprSa-1">
          <mxGeometry x="470" y="50" width="90" height="280" as="geometry" />
        </mxCell>
        <mxCell id="Ycxgk3xf8WvET4Z8Bq6O-12" style="edgeStyle=elbowEdgeStyle;rounded=1;orthogonalLoop=1;jettySize=auto;elbow=vertical;html=1;startArrow=none;startFill=0;strokeColor=#0000CC;fontSize=10;" edge="1" parent="P2OlRVouShTBObQtprSa-1" source="1MOUHBvqsCFy0V0bBK-H-20">
          <mxGeometry relative="1" as="geometry">
            <mxPoint x="530" y="410" as="targetPoint" />
            <Array as="points">
              <mxPoint x="675" y="410" />
            </Array>
          </mxGeometry>
        </mxCell>
        <mxCell id="Ycxgk3xf8WvET4Z8Bq6O-13" style="edgeStyle=elbowEdgeStyle;rounded=1;orthogonalLoop=1;jettySize=auto;elbow=vertical;html=1;startArrow=none;startFill=0;strokeColor=#0000CC;fontSize=10;" edge="1" parent="P2OlRVouShTBObQtprSa-1" source="1MOUHBvqsCFy0V0bBK-H-20" target="Ycxgk3xf8WvET4Z8Bq6O-1">
          <mxGeometry relative="1" as="geometry">
            <Array as="points">
              <mxPoint x="700" y="490" />
            </Array>
          </mxGeometry>
        </mxCell>
        <mxCell id="1MOUHBvqsCFy0V0bBK-H-20" value="&lt;div style=&quot;text-align: left&quot;&gt;&lt;b&gt;&lt;br&gt;&lt;/b&gt;&lt;/div&gt;&lt;div style=&quot;text-align: left&quot;&gt;&lt;b&gt;Corp-Azure-Contributor&lt;/b&gt;&lt;/div&gt;" style="rounded=0;whiteSpace=wrap;html=1;fontSize=10;" vertex="1" parent="P2OlRVouShTBObQtprSa-1">
          <mxGeometry x="610" y="140" width="130" height="80" as="geometry" />
        </mxCell>
        <mxCell id="1MOUHBvqsCFy0V0bBK-H-25" value="Group add &lt;br&gt;request" style="text;html=1;align=center;verticalAlign=middle;resizable=0;points=[];autosize=1;fontSize=10;" vertex="1" parent="P2OlRVouShTBObQtprSa-1">
          <mxGeometry x="50" y="75" width="60" height="30" as="geometry" />
        </mxCell>
        <mxCell id="1MOUHBvqsCFy0V0bBK-H-26" value="" style="aspect=fixed;html=1;points=[];align=center;image;fontSize=12;image=img/lib/azure2/general/Subscriptions.svg;" vertex="1" parent="P2OlRVouShTBObQtprSa-1">
          <mxGeometry x="250" y="385" width="34.08" height="55" as="geometry" />
        </mxCell>
        <mxCell id="1MOUHBvqsCFy0V0bBK-H-27" value="" style="aspect=fixed;html=1;points=[];align=center;image;fontSize=12;image=img/lib/azure2/general/Management_Groups.svg;" vertex="1" parent="P2OlRVouShTBObQtprSa-1">
          <mxGeometry x="350" y="385" width="56.72" height="55" as="geometry" />
        </mxCell>
        <mxCell id="Ycxgk3xf8WvET4Z8Bq6O-0" value="" style="aspect=fixed;html=1;points=[];align=center;image;fontSize=12;image=img/lib/mscae/ResourceGroup.svg;" vertex="1" parent="P2OlRVouShTBObQtprSa-1">
          <mxGeometry x="480" y="391" width="48.75" height="39" as="geometry" />
        </mxCell>
        <mxCell id="Ycxgk3xf8WvET4Z8Bq6O-1" value="Subscriptions" style="text;html=1;align=center;verticalAlign=middle;resizable=0;points=[];autosize=1;fontSize=10;" vertex="1" parent="P2OlRVouShTBObQtprSa-1">
          <mxGeometry x="224" y="440" width="80" height="20" as="geometry" />
        </mxCell>
        <mxCell id="Ycxgk3xf8WvET4Z8Bq6O-2" value="Management Groups" style="text;html=1;align=center;verticalAlign=middle;resizable=0;points=[];autosize=1;fontSize=10;" vertex="1" parent="P2OlRVouShTBObQtprSa-1">
          <mxGeometry x="320" y="440" width="110" height="20" as="geometry" />
        </mxCell>
        <mxCell id="Ycxgk3xf8WvET4Z8Bq6O-3" value="Resource Groups" style="text;html=1;align=center;verticalAlign=middle;resizable=0;points=[];autosize=1;fontSize=10;" vertex="1" parent="P2OlRVouShTBObQtprSa-1">
          <mxGeometry x="461" y="438" width="90" height="20" as="geometry" />
        </mxCell>
        <mxCell id="Ycxgk3xf8WvET4Z8Bq6O-9" value="User raise request to elevate access to contributor" style="text;html=1;align=center;verticalAlign=middle;resizable=0;points=[];autosize=1;fontSize=10;" vertex="1" parent="P2OlRVouShTBObQtprSa-1">
          <mxGeometry x="100" y="20" width="240" height="20" as="geometry" />
        </mxCell>
        <mxCell id="1MOUHBvqsCFy0V0bBK-H-7" value="" style="aspect=fixed;html=1;points=[];align=center;image;fontSize=12;image=img/lib/azure2/identity/Groups.svg;" vertex="1" parent="P2OlRVouShTBObQtprSa-1">
          <mxGeometry x="20" y="100" width="24.29" height="20" as="geometry" />
        </mxCell>
        <mxCell id="Ycxgk3xf8WvET4Z8Bq6O-14" value="Azure PIM provides access to individual&amp;nbsp;&lt;br&gt;user for limited period 0-8 hours" style="text;html=1;align=center;verticalAlign=middle;resizable=0;points=[];autosize=1;fontSize=10;" vertex="1" parent="P2OlRVouShTBObQtprSa-1">
          <mxGeometry x="560" y="105" width="190" height="30" as="geometry" />
        </mxCell>
        <mxCell id="Ycxgk3xf8WvET4Z8Bq6O-16" value="Subscription or Resource&lt;br style=&quot;font-size: 8px&quot;&gt;group can be exposed&lt;br style=&quot;font-size: 8px&quot;&gt;at PIM to raise access&lt;br&gt;request for" style="text;html=1;align=center;verticalAlign=middle;resizable=0;points=[];autosize=1;fontSize=8;" vertex="1" parent="P2OlRVouShTBObQtprSa-1">
          <mxGeometry x="560" y="225" width="110" height="50" as="geometry" />
        </mxCell>
        <mxCell id="Ycxgk3xf8WvET4Z8Bq6O-17" value="Admin raise request to elevate access to contributor" style="text;html=1;align=center;verticalAlign=middle;resizable=0;points=[];autosize=1;fontSize=9;" vertex="1" parent="P2OlRVouShTBObQtprSa-1">
          <mxGeometry x="40" y="340" width="220" height="20" as="geometry" />
        </mxCell>
      </root>
    </mxGraphModel>
  </diagram>
</mxfile>
